<svg xmlns="http://www.w3.org/2000/svg" width="18" height="18" viewBox="0 0 18 18" fill="none">
  <path d="M7.58369 8.36279H5.5962C5.1237 8.36279 4.74121 8.74526 4.74121 9.21776V13.0578H7.58369V8.36279V8.36279Z" stroke="#00A603" stroke-width="1.2" stroke-miterlimit="10" stroke-linecap="round" stroke-linejoin="round"/>
  <path d="M9.57215 4.9502H8.43214C7.95964 4.9502 7.57715 5.33271 7.57715 5.80521V13.0502H10.4197V5.80521C10.4197 5.33271 10.0447 4.9502 9.57215 4.9502Z" stroke="#00A603" stroke-width="1.2" stroke-miterlimit="10" stroke-linecap="round" stroke-linejoin="round"/>
  <path d="M12.4128 9.6377H10.4253V13.0502H13.2678V10.4927C13.2603 10.0202 12.8778 9.6377 12.4128 9.6377Z" stroke="#00A603" stroke-width="1.2" stroke-miterlimit="10" stroke-linecap="round" stroke-linejoin="round"/>
  <path d="M6.75 16.5H11.25C15 16.5 16.5 15 16.5 11.25V6.75C16.5 3 15 1.5 11.25 1.5H6.75C3 1.5 1.5 3 1.5 6.75V11.25C1.5 15 3 16.5 6.75 16.5Z" stroke="#00A603" stroke-width="1.2" stroke-linecap="round" stroke-linejoin="round"/>
</svg>